<?xml version="1.0" encoding="UTF-8" standalone="no"?>
<svg
   xmlns:dc="http://purl.org/dc/elements/1.1/"
   xmlns:cc="http://creativecommons.org/ns#"
   xmlns:rdf="http://www.w3.org/1999/02/22-rdf-syntax-ns#"
   xmlns:svg="http://www.w3.org/2000/svg"
   xmlns="http://www.w3.org/2000/svg"
   xmlns:sodipodi="http://sodipodi.sourceforge.net/DTD/sodipodi-0.dtd"
   xmlns:inkscape="http://www.inkscape.org/namespaces/inkscape"
   aria-hidden="true"
   focusable="false"
   data-prefix="far"
   data-icon="file-alt"
   class="svg-inline--fa fa-file-alt fa-w-12"
   role="img"
   viewBox="0 0 384 512"
   version="1.1"
   id="svg4"
   sodipodi:docname="file-alt-regular_es.svg"
   inkscape:version="1.0.1 (3bc2e813f5, 2020-09-07)">
  <metadata
     id="metadata10">
    <rdf:RDF>
      <cc:Work
         rdf:about="">
        <dc:format>image/svg+xml</dc:format>
        <dc:type
           rdf:resource="http://purl.org/dc/dcmitype/StillImage" />
        <dc:title />
      </cc:Work>
    </rdf:RDF>
  </metadata>
  <defs
     id="defs8" />
  <sodipodi:namedview
     pagecolor="#ffffff"
     bordercolor="#666666"
     borderopacity="1"
     objecttolerance="10"
     gridtolerance="10"
     guidetolerance="10"
     inkscape:pageopacity="0"
     inkscape:pageshadow="2"
     inkscape:window-width="1920"
     inkscape:window-height="1017"
     id="namedview6"
     showgrid="false"
     showguides="true"
     inkscape:guide-bbox="true"
     inkscape:zoom="0.70710678"
     inkscape:cx="-381.79982"
     inkscape:cy="255.30108"
     inkscape:window-x="-8"
     inkscape:window-y="-8"
     inkscape:window-maximized="1"
     inkscape:current-layer="svg4"
     inkscape:document-rotation="0">
    <sodipodi:guide
       position="95.774118,239.13412"
       orientation="1,0"
       id="guide839" />
    <sodipodi:guide
       position="287.92471,219.85882"
       orientation="1,0"
       id="guide841" />
    <sodipodi:guide
       position="212.02824,275.27529"
       orientation="0,-1"
       id="guide843" />
    <sodipodi:guide
       position="211.42588,140.34824"
       orientation="0,-1"
       id="guide845" />
  </sodipodi:namedview>
  <path
     fill="currentColor"
     d="M 384,131.9 V 464 c 0,26.5 -21.5,48 -48,48 H 48 C 21.5,512 0,490.5 0,464 V 48 C 0,21.5 21.5,0 48,0 H 252.1 C 264.8,0 277,5.1 286,14.1 L 369.9,98 c 9,8.9 14.1,21.2 14.1,33.9 z M 256,51.9 V 128 h 76.1 z M 336,464 V 176 H 232 c -13.3,0 -24,-10.7 -24,-24 V 48 H 48 v 416 z"
     id="path2"
     sodipodi:nodetypes="ssssssssscsccccccsscccc"
     style="fill:#e4739e;fill-opacity:1"
     inkscape:export-xdpi="72"
     inkscape:export-ydpi="72" />
  <g
     aria-label="ES"
     id="text849"
     style="font-size:151.062px;line-height:1.25;font-family:sans-serif;letter-spacing:0px;word-spacing:0px;stroke-width:1.13297;fill:#e4739e;fill-opacity:1"
     inkscape:export-xdpi="72"
     inkscape:export-ydpi="72">
    <g
       id="g873"
       style="opacity:1;fill:#e4739e;fill-opacity:1">
      <path
         style="color:#000000;font-style:normal;font-variant:normal;font-weight:normal;font-stretch:normal;font-size:151.062px;line-height:1.25;font-family:'Arial Rounded MT Bold';-inkscape-font-specification:'Arial Rounded MT Bold, ';font-variant-ligatures:normal;font-variant-position:normal;font-variant-caps:normal;font-variant-numeric:normal;font-variant-alternates:normal;font-variant-east-asian:normal;font-feature-settings:normal;font-variation-settings:normal;text-indent:0;text-align:start;text-decoration:none;text-decoration-line:none;text-decoration-style:solid;text-decoration-color:#000000;letter-spacing:0px;word-spacing:0px;text-transform:none;writing-mode:lr-tb;direction:ltr;text-orientation:mixed;dominant-baseline:auto;baseline-shift:baseline;text-anchor:start;white-space:normal;shape-padding:0;shape-margin:0;inline-size:0;clip-rule:nonzero;display:inline;overflow:visible;visibility:visible;isolation:auto;mix-blend-mode:normal;color-interpolation:sRGB;color-interpolation-filters:linearRGB;solid-color:#000000;solid-opacity:1;vector-effect:none;fill:#e4739e;fill-opacity:1;fill-rule:nonzero;stroke-width:1.13297;stroke-linecap:butt;stroke-linejoin:miter;stroke-miterlimit:4;stroke-dasharray:none;stroke-dashoffset:0;stroke-opacity:1;color-rendering:auto;image-rendering:auto;shape-rendering:auto;text-rendering:auto;enable-background:accumulate;stop-color:#000000;stop-opacity:1;stroke:none"
         d="m 167.80599,263.80154 h -49.34594 v 26.55387 h 45.43662 c 3.34382,0 5.8271,0.76219 7.44984,2.28658 1.67191,1.47521 2.50786,3.44217 2.50786,5.90086 0,2.45869 -0.81137,4.47482 -2.4341,6.04838 -1.62274,1.52439 -4.13061,2.28659 -7.5236,2.28659 h -45.43662 v 30.75822 h 51.04244 c 3.44217,0 6.02379,0.81137 7.74487,2.43411 1.77026,1.57356 2.65539,3.68803 2.65539,6.34342 0,2.55704 -0.88513,4.64693 -2.65539,6.26967 -1.72108,1.57356 -4.3027,2.36034 -7.74487,2.36034 h -59.52492 c -4.76986,0 -8.21203,-1.05724 -10.326504,-3.17171 -2.065301,-2.11447 -3.097951,-5.53206 -3.097951,-10.25275 v -81.28433 c 0,-3.14713 0.467151,-5.70417 1.401454,-7.67112 0.934303,-2.01613 2.384931,-3.46675 4.351881,-4.35188 2.01613,-0.93431 4.57317,-1.40146 7.67112,-1.40146 h 57.82842 c 3.49134,0 6.07297,0.78678 7.74488,2.36035 1.72108,1.52439 2.58162,3.54051 2.58162,6.04838 0,2.55704 -0.86054,4.62234 -2.58162,6.1959 -1.67191,1.52439 -4.25354,2.28658 -7.74488,2.28658 z"
         id="path875" />
      <path
         style="color:#000000;font-style:normal;font-variant:normal;font-weight:normal;font-stretch:normal;font-size:151.062px;line-height:1.25;font-family:'Arial Rounded MT Bold';-inkscape-font-specification:'Arial Rounded MT Bold, ';font-variant-ligatures:normal;font-variant-position:normal;font-variant-caps:normal;font-variant-numeric:normal;font-variant-alternates:normal;font-variant-east-asian:normal;font-feature-settings:normal;font-variation-settings:normal;text-indent:0;text-align:start;text-decoration:none;text-decoration-line:none;text-decoration-style:solid;text-decoration-color:#000000;letter-spacing:0px;word-spacing:0px;text-transform:none;writing-mode:lr-tb;direction:ltr;text-orientation:mixed;dominant-baseline:auto;baseline-shift:baseline;text-anchor:start;white-space:normal;shape-padding:0;shape-margin:0;inline-size:0;clip-rule:nonzero;display:inline;overflow:visible;visibility:visible;isolation:auto;mix-blend-mode:normal;color-interpolation:sRGB;color-interpolation-filters:linearRGB;solid-color:#000000;solid-opacity:1;vector-effect:none;fill-opacity:1;fill-rule:nonzero;stroke-width:1.13297;stroke-linecap:butt;stroke-linejoin:miter;stroke-miterlimit:4;stroke-dasharray:none;stroke-dashoffset:0;stroke-opacity:1;color-rendering:auto;image-rendering:auto;shape-rendering:auto;text-rendering:auto;enable-background:accumulate;stop-color:#000000;stop-opacity:1;stroke:none;fill:#e4739e"
         d="M 109.97852 246.34375 C 106.82623 246.34375 104.18989 246.81573 102.07422 247.79492 C 99.991097 248.73233 98.426176 250.30075 97.441406 252.42578 C 96.458542 254.49771 95.986328 257.13347 95.986328 260.33398 L 95.986328 341.61914 C 95.986328 346.42245 97.03355 350.00236 99.246094 352.26758 L 99.248047 352.26953 L 99.25 352.27148 C 101.51508 354.53656 105.12495 355.60937 109.97852 355.60938 L 169.50195 355.60938 C 173.03044 355.60938 175.76902 354.80203 177.62891 353.10156 L 177.63086 353.10156 C 179.51037 351.37867 180.46875 349.10183 180.46875 346.41406 C 180.46875 343.63547 179.51186 341.33061 177.62695 339.65234 C 175.76885 337.90544 173.02806 337.07031 169.50195 337.07031 L 119.02734 337.07031 L 119.02734 307.44336 L 163.89648 307.44336 C 167.37431 307.44336 170.04225 306.6632 171.80859 305.00391 L 171.81055 305.00195 L 171.81445 304.99805 C 173.54304 303.32184 174.41992 301.12629 174.41992 298.54297 C 174.41992 295.95954 173.51052 293.80253 171.72656 292.22461 C 169.96231 290.57121 167.32242 289.78906 163.89648 289.78906 L 119.02734 289.78906 L 119.02734 264.36719 L 167.80664 264.36719 C 171.38043 264.36719 174.11466 263.59025 175.93164 261.93359 L 175.93359 261.93359 C 177.76745 260.25692 178.69922 258.0025 178.69922 255.31836 C 178.69922 252.68455 177.76312 250.47949 175.93164 248.85352 C 174.11638 247.149 171.37908 246.34375 167.80664 246.34375 L 109.97852 246.34375 z M 109.97852 247.47656 L 167.80664 247.47656 C 171.21287 247.47656 173.6335 248.2449 175.16211 249.68359 L 175.16797 249.68945 L 175.17578 249.69531 C 176.78144 251.11747 177.56641 252.94008 177.56641 255.31836 C 177.56641 257.7483 176.77627 259.62721 175.16797 261.09766 C 173.64102 262.48872 171.2142 263.23438 167.80664 263.23438 L 117.89453 263.23438 L 117.89453 290.92188 L 163.89648 290.92188 C 167.15422 290.92188 169.47777 291.66324 170.95898 293.05469 L 170.96484 293.06055 L 170.97266 293.06641 C 172.52749 294.43832 173.28711 296.21268 173.28711 298.54297 C 173.28711 300.87599 172.54285 302.71106 171.02734 304.18164 C 169.54793 305.56828 167.20111 306.31055 163.89648 306.31055 L 117.89453 306.31055 L 117.89453 338.20312 L 169.50195 338.20312 C 172.8551 338.20312 175.27545 338.989 176.85938 340.48242 L 176.86523 340.48828 L 176.87109 340.49414 C 178.52309 341.96258 179.33594 343.88456 179.33594 346.41406 C 179.33594 348.84038 178.52624 350.74304 176.86523 352.26562 C 175.28296 353.71228 172.8578 354.47656 169.50195 354.47656 L 109.97852 354.47656 C 105.29682 354.47656 102.02114 353.43681 100.05664 351.47656 L 100.05469 351.47266 C 100.05371 351.47168 100.05176 351.47168 100.05078 351.4707 C 98.13629 349.50639 97.119141 346.25277 97.119141 341.61914 L 97.119141 260.33398 C 97.119141 257.24292 97.582733 254.76744 98.466797 252.90625 L 98.466797 252.9043 L 98.46875 252.90234 C 99.352585 250.99512 100.68828 249.66098 102.53906 248.82812 L 102.54102 248.82617 L 102.54492 248.82617 C 104.46062 247.93841 106.93751 247.47656 109.97852 247.47656 z "
         id="path877" />
    </g>
    <g
       id="g879"
       style="opacity:1;fill:#e4739e;fill-opacity:1"
       transform="translate(7.5,-0.25)">
      <path
         style="color:#000000;font-style:normal;font-variant:normal;font-weight:normal;font-stretch:normal;font-size:151.062px;line-height:1.25;font-family:'Arial Rounded MT Bold';-inkscape-font-specification:'Arial Rounded MT Bold, ';font-variant-ligatures:normal;font-variant-position:normal;font-variant-caps:normal;font-variant-numeric:normal;font-variant-alternates:normal;font-variant-east-asian:normal;font-feature-settings:normal;font-variation-settings:normal;text-indent:0;text-align:start;text-decoration:none;text-decoration-line:none;text-decoration-style:solid;text-decoration-color:#000000;letter-spacing:0px;word-spacing:0px;text-transform:none;writing-mode:lr-tb;direction:ltr;text-orientation:mixed;dominant-baseline:auto;baseline-shift:baseline;text-anchor:start;white-space:normal;shape-padding:0;shape-margin:0;inline-size:0;clip-rule:nonzero;display:inline;overflow:visible;visibility:visible;isolation:auto;mix-blend-mode:normal;color-interpolation:sRGB;color-interpolation-filters:linearRGB;solid-color:#000000;solid-opacity:1;vector-effect:none;fill:#e4739e;fill-opacity:1;fill-rule:nonzero;stroke:none;stroke-width:1.13297;stroke-linecap:butt;stroke-linejoin:miter;stroke-miterlimit:4;stroke-dasharray:none;stroke-dashoffset:0;stroke-opacity:1;color-rendering:auto;image-rendering:auto;shape-rendering:auto;text-rendering:auto;enable-background:accumulate;stop-color:#000000;stop-opacity:1"
         d="m 279.47975,322.58885 c 0,6.54012 -1.6965,12.41639 -5.08949,17.62882 -3.34382,5.21243 -8.2612,9.29385 -14.75215,12.24428 -6.49095,2.95043 -14.18665,4.42565 -23.08711,4.42565 -10.67072,0 -19.47283,-2.01613 -26.40634,-6.04838 -4.91739,-2.90126 -8.92506,-6.76141 -12.02301,-11.58044 -3.04877,-4.86821 -4.57316,-9.58889 -4.57316,-14.16206 0,-2.65539 0.90972,-4.91738 2.72915,-6.78599 1.8686,-1.91778 4.22894,-2.87667 7.08103,-2.87667 2.31117,0 4.25353,0.73761 5.8271,2.21282 1.62273,1.47522 2.9996,3.66346 4.1306,6.56471 1.37687,3.44217 2.85208,6.31884 4.42564,8.63001 1.62274,2.31117 3.88474,4.22894 6.78599,5.75333 2.90125,1.47522 6.71222,2.21283 11.43291,2.21283 6.49095,0 11.75255,-1.4998 15.7848,-4.49941 4.08143,-3.04877 6.12214,-6.83516 6.12214,-11.35915 0,-3.58969 -1.10641,-6.49095 -3.31923,-8.70377 -2.16365,-2.26199 -4.99114,-3.98308 -8.48248,-5.16325 -3.44217,-1.18017 -8.06451,-2.43411 -13.86702,-3.7618 -7.76947,-1.81943 -14.285,-3.93391 -19.5466,-6.34342 -5.21243,-2.45869 -9.36761,-5.77793 -12.46556,-9.9577 -3.04878,-4.22895 -4.57317,-9.46597 -4.57317,-15.71104 0,-5.95003 1.62274,-11.23622 4.86821,-15.85856 3.24547,-4.62234 7.94157,-8.16286 14.0883,-10.62155 6.14673,-2.50786 13.37528,-3.76179 21.68566,-3.76179 6.63847,0 12.36722,0.83595 17.18625,2.50786 4.86821,1.62273 8.90046,3.81097 12.09676,6.56471 3.1963,2.70456 5.53206,5.55664 7.00727,8.55624 1.47521,2.99961 2.21282,5.92545 2.21282,8.77753 0,2.60621 -0.9343,4.96656 -2.8029,7.08103 -1.81943,2.0653 -4.10602,3.09795 -6.85975,3.09795 -2.50787,0 -4.42565,-0.61467 -5.75334,-1.84402 -1.27852,-1.27852 -2.67997,-3.34382 -4.20436,-6.1959 -1.96695,-4.08143 -4.3273,-7.25314 -7.08103,-9.51513 -2.75374,-2.31117 -7.17939,-3.46676 -13.27694,-3.46676 -5.65499,0 -10.22815,1.25393 -13.7195,3.7618 -3.44217,2.45869 -5.16325,5.43371 -5.16325,8.92505 0,2.16365 0.59009,4.03225 1.77026,5.60581 1.18017,1.57357 2.80291,2.92585 4.86821,4.05685 2.0653,1.13099 4.15519,2.01612 6.26966,2.65538 2.11447,0.63926 5.60582,1.57356 10.47403,2.80291 6.09755,1.42604 11.60502,2.9996 16.5224,4.72069 4.96656,1.72108 9.17092,3.81097 12.61309,6.26966 3.49134,2.45869 6.1959,5.58123 8.11368,9.36761 1.96695,3.73721 2.95043,8.33497 2.95043,13.79326 z"
         id="path881" />
      <path
         style="color:#000000;font-style:normal;font-variant:normal;font-weight:normal;font-stretch:normal;font-size:151.062px;line-height:1.25;font-family:'Arial Rounded MT Bold';-inkscape-font-specification:'Arial Rounded MT Bold, ';font-variant-ligatures:normal;font-variant-position:normal;font-variant-caps:normal;font-variant-numeric:normal;font-variant-alternates:normal;font-variant-east-asian:normal;font-feature-settings:normal;font-variation-settings:normal;text-indent:0;text-align:start;text-decoration:none;text-decoration-line:none;text-decoration-style:solid;text-decoration-color:#000000;letter-spacing:0px;word-spacing:0px;text-transform:none;writing-mode:lr-tb;direction:ltr;text-orientation:mixed;dominant-baseline:auto;baseline-shift:baseline;text-anchor:start;white-space:normal;shape-padding:0;shape-margin:0;inline-size:0;clip-rule:nonzero;display:inline;overflow:visible;visibility:visible;isolation:auto;mix-blend-mode:normal;color-interpolation:sRGB;color-interpolation-filters:linearRGB;solid-color:#000000;solid-opacity:1;vector-effect:none;fill-opacity:1;fill-rule:nonzero;stroke:none;stroke-width:1.13297;stroke-linecap:butt;stroke-linejoin:miter;stroke-miterlimit:4;stroke-dasharray:none;stroke-dashoffset:0;stroke-opacity:1;color-rendering:auto;image-rendering:auto;shape-rendering:auto;text-rendering:auto;enable-background:accumulate;stop-color:#000000;stop-opacity:1;fill:#e4739e"
         d="m 236.25586,244.5 c -8.36736,0 -15.67099,1.26114 -21.90039,3.80273 h 0.004 c -6.22847,2.49139 -11.02683,6.10094 -14.3418,10.82227 -3.31116,4.71589 -4.9707,10.13056 -4.9707,16.18359 0,6.33726 1.55354,11.70476 4.67968,16.04102 l 0.004,0.004 0.002,0.004 c 3.15681,4.25919 7.39245,7.63975 12.67774,10.13281 h 0.004 l 0.002,0.002 c 5.30849,2.43099 11.85841,4.55329 19.65429,6.3789 l 0.002,0.002 c 5.79067,1.32498 10.3991,2.5745 13.81054,3.74414 v 0.002 h 0.002 c 3.42095,1.15638 6.16144,2.83001 8.2539,5.01758 l 0.006,0.004 0.004,0.006 c 2.10452,2.10452 3.15234,4.82945 3.15234,8.30274 0,4.35364 -1.92073,7.93787 -5.89453,10.90625 -3.91519,2.91167 -9.04279,4.38672 -15.44531,4.38672 -4.66168,0 -8.38518,-0.73339 -11.17578,-2.15235 -2.82888,-1.48746 -5.01066,-3.34244 -6.57422,-5.5664 l -0.002,-0.004 c -0.001,-10e-4 -0.003,-0.002 -0.004,-0.004 -1.54067,-2.26438 -2.99785,-5.10175 -4.36133,-8.50976 l -0.002,-0.004 c -1.1509,-2.95094 -2.56192,-5.21301 -4.26953,-6.76757 l -0.002,-0.002 c -1.67419,-1.5686 -3.78022,-2.36523 -6.21093,-2.36523 -2.97906,0 -5.51915,1.02787 -7.48829,3.04883 -1.91299,1.9647 -2.88867,4.39687 -2.88867,7.18164 0,4.69905 1.56708,9.5251 4.6582,14.46093 l 0.002,0.004 0.002,0.002 c 3.14372,4.89022 7.22212,8.81717 12.21289,11.76172 v 0.002 h 0.002 c 7.04267,4.09575 15.94933,6.125 26.6914,6.125 8.96306,0 16.74252,-1.48381 23.32227,-4.4746 6.5705,-2.98659 11.58469,-7.14115 14.99218,-12.45118 l 0.002,-0.004 c 3.45048,-5.3023 5.17969,-11.29901 5.17969,-17.93555 -1e-5,-5.52281 -0.99443,-10.21239 -3.01172,-14.04883 l -0.002,-0.004 c -1.95752,-3.86331 -4.72804,-7.06006 -8.28906,-9.56836 l -0.002,-0.002 c -3.49535,-2.49631 -7.74657,-4.60711 -12.75196,-6.34179 h -0.002 c -4.93699,-1.72788 -10.46129,-3.30533 -16.57031,-4.73438 l -0.01,-0.002 c -4.85749,-1.22674 -8.34394,-2.16199 -10.4375,-2.79492 -2.07479,-0.62727 -4.1288,-1.49591 -6.16211,-2.60938 -2.00809,-1.09967 -3.5634,-2.4016 -4.6875,-3.90039 -1.10539,-1.47386 -1.65625,-3.20497 -1.65625,-5.26562 0,-3.30517 1.58682,-6.07791 4.92578,-8.46289 v -0.002 h 0.002 c 3.37364,-2.42332 7.81742,-3.65429 13.38867,-3.65429 6.02598,0 10.31608,1.15517 12.91211,3.33398 l 0.002,0.002 0.002,0.002 c 2.67572,2.19791 4.9918,5.2971 6.93164,9.32226 l 0.004,0.0117 0.006,0.01 c 1.53884,2.87911 2.95684,4.98223 4.30469,6.33007 l 0.008,0.008 0.008,0.006 c 1.45817,1.35015 3.53629,1.99609 6.13672,1.99609 2.89536,0 5.37202,-1.11935 7.28516,-3.29102 1.94431,-2.20069 2.94531,-4.71402 2.94531,-7.45507 0,-2.94975 -0.76489,-5.96394 -2.27148,-9.02735 -1.51696,-3.08449 -3.90806,-5.99477 -7.15039,-8.73828 -3.26048,-2.80818 -7.35757,-5.02733 -12.27735,-6.66797 C 248.73182,245.34075 242.94188,244.5 236.25586,244.5 Z m 0,1.13281 c 6.59091,0 12.25707,0.83106 17,2.47657 l 0.004,0.002 h 0.004 c 4.8123,1.60409 8.77601,3.7602 11.90625,6.45703 l 0.002,0.002 0.002,0.002 c 3.15027,2.66561 5.42981,5.45833 6.86328,8.37304 1.44383,2.93581 2.15625,5.77294 2.15625,8.52735 0,2.47082 -0.86999,4.67714 -2.66211,6.70507 v 0.002 c -1.72573,1.95893 -3.82343,2.90625 -6.43555,2.90625 -2.41118,0 -4.16229,-0.58459 -5.35937,-1.68946 -1.20747,-1.21004 -2.59076,-3.23337 -4.09766,-6.05273 l 0.01,0.0215 c -1.99311,-4.1357 -4.39659,-7.37728 -7.22656,-9.70312 -2.91145,-2.44354 -7.4715,-3.59961 -13.64063,-3.59961 -5.73873,0 -10.44173,1.27673 -14.05078,3.86914 -3.54382,2.53213 -5.39844,5.70808 -5.39844,9.38477 0,2.26664 0.62786,4.27205 1.88281,5.94531 1.23626,1.64834 2.92633,3.05252 5.04883,4.21484 2.0973,1.14852 4.22476,2.04992 6.37891,2.70117 2.13346,0.64501 5.62611,1.57831 10.49804,2.8086 l 0.006,0.002 h 0.004 c 6.08123,1.42222 11.57033,2.992 16.46484,4.70508 h 0.002 c 4.92596,1.70701 9.08057,3.77518 12.46875,6.19531 l 0.002,0.002 h 0.002 c 3.41934,2.40799 6.0561,5.4533 7.9336,9.16016 l 0.002,0.004 0.002,0.004 c 1.91402,3.63663 2.88672,8.13905 2.88672,13.5293 0,6.44216 -1.66415,12.19867 -4.99804,17.32031 l -0.002,0.002 v 0.002 c -3.2801,5.1131 -8.09986,9.11961 -14.50976,12.0332 -6.40215,2.91007 -14.01565,4.375 -22.85352,4.375 -10.59823,0 -19.29514,-2.00083 -26.11914,-5.96875 l -0.002,-0.002 c -4.84085,-2.85659 -8.77698,-6.64638 -11.82813,-11.39063 l -0.002,-0.002 c -7.9e-4,-0.001 -0.001,-0.003 -0.002,-0.004 -3.00373,-4.79827 -4.48243,-9.41016 -4.48243,-13.85546 0,-2.52542 0.84331,-4.61838 2.56836,-6.39063 1.76807,-1.8146 3.95067,-2.70703 6.67579,-2.70703 2.19063,0 3.96684,0.67998 5.43945,2.06055 l 0.002,0.002 0.004,0.004 c 1.53443,1.39494 2.87487,3.50545 3.98437,6.35156 v 0.002 l 0.002,0.002 c 1.38826,3.47066 2.87849,6.38249 4.48242,8.73828 l 0.002,0.004 0.004,0.004 c 1.68031,2.39317 4.01726,4.36874 6.98437,5.92773 l 0.004,0.002 0.004,0.002 c 3.01191,1.53148 6.90976,2.27539 11.68946,2.27539 6.57821,0 11.974,-1.52484 16.12304,-4.61133 v -0.002 c 4.18906,-3.12917 6.34961,-7.11815 6.34961,-11.8125 0,-3.70189 -1.1607,-6.7755 -3.47656,-9.0957 l -0.004,-0.004 c -2.2338,-2.33392 -5.14456,-4.09946 -8.70312,-5.30273 -3.4729,-1.19071 -8.10949,-2.4489 -13.92383,-3.7793 l 0.002,0.002 c -7.74305,-1.81325 -14.22474,-3.92055 -19.43945,-6.30859 -5.13407,-2.42289 -9.20486,-5.6775 -12.24219,-9.77344 l -0.002,-0.004 c -5.5e-4,-7.3e-4 -10e-4,-10e-4 -0.002,-0.002 -2.96869,-4.12066 -4.46289,-9.22299 -4.46289,-15.37305 0,-5.84703 1.58584,-11.00441 4.76562,-15.5332 3.17597,-4.52335 7.77095,-7.99588 13.83594,-10.42187 h 0.002 0.002 c 6.06404,-2.47413 13.2173,-3.72071 21.4707,-3.72071 z"
         id="path883" />
    </g>
  </g>
</svg>
