<?xml version="1.0" encoding="UTF-8" standalone="no"?>
<svg
   xmlns:dc="http://purl.org/dc/elements/1.1/"
   xmlns:cc="http://creativecommons.org/ns#"
   xmlns:rdf="http://www.w3.org/1999/02/22-rdf-syntax-ns#"
   xmlns:svg="http://www.w3.org/2000/svg"
   xmlns="http://www.w3.org/2000/svg"
   xmlns:sodipodi="http://sodipodi.sourceforge.net/DTD/sodipodi-0.dtd"
   xmlns:inkscape="http://www.inkscape.org/namespaces/inkscape"
   aria-hidden="true"
   focusable="false"
   data-prefix="far"
   data-icon="file-alt"
   class="svg-inline--fa fa-file-alt fa-w-12"
   role="img"
   viewBox="0 0 384 512"
   version="1.1"
   id="svg4"
   sodipodi:docname="file-alt-regular_en.svg"
   inkscape:version="1.0.1 (3bc2e813f5, 2020-09-07)">
  <metadata
     id="metadata10">
    <rdf:RDF>
      <cc:Work
         rdf:about="">
        <dc:format>image/svg+xml</dc:format>
        <dc:type
           rdf:resource="http://purl.org/dc/dcmitype/StillImage" />
      </cc:Work>
    </rdf:RDF>
  </metadata>
  <defs
     id="defs8" />
  <sodipodi:namedview
     pagecolor="#ffffff"
     bordercolor="#666666"
     borderopacity="1"
     objecttolerance="10"
     gridtolerance="10"
     guidetolerance="10"
     inkscape:pageopacity="0"
     inkscape:pageshadow="2"
     inkscape:window-width="1920"
     inkscape:window-height="1017"
     id="namedview6"
     showgrid="false"
     showguides="true"
     inkscape:guide-bbox="true"
     inkscape:zoom="0.8300781"
     inkscape:cx="-274.42046"
     inkscape:cy="213.48874"
     inkscape:window-x="-8"
     inkscape:window-y="-8"
     inkscape:window-maximized="1"
     inkscape:current-layer="g856"
     inkscape:document-rotation="0">
    <sodipodi:guide
       position="95.774118,239.13412"
       orientation="1,0"
       id="guide839" />
    <sodipodi:guide
       position="287.92471,219.85882"
       orientation="1,0"
       id="guide841" />
    <sodipodi:guide
       position="212.02824,275.27529"
       orientation="0,-1"
       id="guide843" />
    <sodipodi:guide
       position="211.42588,140.34824"
       orientation="0,-1"
       id="guide845" />
  </sodipodi:namedview>
  <path
     fill="currentColor"
     d="M 384,131.9 V 464 c 0,26.5 -21.5,48 -48,48 H 48 C 21.5,512 0,490.5 0,464 V 48 C 0,21.5 21.5,0 48,0 H 252.1 C 264.8,0 277,5.1 286,14.1 L 369.9,98 c 9,8.9 14.1,21.2 14.1,33.9 z M 256,51.9 V 128 h 76.1 z M 336,464 V 176 H 232 c -13.3,0 -24,-10.7 -24,-24 V 48 H 48 v 416 z"
     id="path2"
     sodipodi:nodetypes="ssssssssscsccccccsscccc"
     style="fill:#e4739e;fill-opacity:1"
     inkscape:export-xdpi="72"
     inkscape:export-ydpi="72" />
  <g
     aria-label="EN"
     id="text849"
     style="font-size:151.062px;line-height:1.25;font-family:sans-serif;word-spacing:0px;stroke-width:1.13297">
    <g
       id="g856"
       style="opacity:1">
      <path
         style="color:#000000;font-style:normal;font-variant:normal;font-weight:normal;font-stretch:normal;font-size:151.062px;line-height:1.25;font-family:'Arial Rounded MT Bold';-inkscape-font-specification:'Arial Rounded MT Bold, ';font-variant-ligatures:normal;font-variant-position:normal;font-variant-caps:normal;font-variant-numeric:normal;font-variant-alternates:normal;font-variant-east-asian:normal;font-feature-settings:normal;font-variation-settings:normal;text-indent:0;text-align:start;text-decoration:none;text-decoration-line:none;text-decoration-style:solid;text-decoration-color:#000000;letter-spacing:normal;word-spacing:0px;text-transform:none;writing-mode:lr-tb;direction:ltr;text-orientation:mixed;dominant-baseline:auto;baseline-shift:baseline;text-anchor:start;white-space:normal;shape-padding:0;shape-margin:0;inline-size:0;clip-rule:nonzero;display:inline;overflow:visible;visibility:visible;isolation:auto;mix-blend-mode:normal;color-interpolation:sRGB;color-interpolation-filters:linearRGB;solid-color:#000000;solid-opacity:1;vector-effect:none;fill:#e4739e;fill-opacity:1;fill-rule:nonzero;stroke-width:1.13297;stroke-linecap:butt;stroke-linejoin:miter;stroke-miterlimit:4;stroke-dasharray:none;stroke-dashoffset:0;stroke-opacity:1;color-rendering:auto;image-rendering:auto;shape-rendering:auto;text-rendering:auto;enable-background:accumulate;stop-color:#000000;stop-opacity:1;stroke:none"
         d="m 167.80599,263.80154 h -49.34594 v 26.55387 h 45.43662 c 3.34382,0 5.8271,0.76219 7.44984,2.28658 1.67191,1.47521 2.50786,3.44217 2.50786,5.90086 0,2.45869 -0.81137,4.47482 -2.4341,6.04838 -1.62274,1.52439 -4.13061,2.28659 -7.5236,2.28659 h -45.43662 v 30.75822 h 51.04244 c 3.44217,0 6.02379,0.81137 7.74487,2.43411 1.77026,1.57356 2.65539,3.68803 2.65539,6.34342 0,2.55704 -0.88513,4.64693 -2.65539,6.26967 -1.72108,1.57356 -4.3027,2.36034 -7.74487,2.36034 h -59.52492 c -4.76986,0 -8.21203,-1.05724 -10.326504,-3.17171 -2.065301,-2.11447 -3.097951,-5.53206 -3.097951,-10.25275 v -81.28433 c 0,-3.14713 0.467151,-5.70417 1.401454,-7.67112 0.934303,-2.01613 2.384931,-3.46675 4.351881,-4.35188 2.01613,-0.93431 4.57317,-1.40146 7.67112,-1.40146 h 57.82842 c 3.49134,0 6.07297,0.78678 7.74488,2.36035 1.72108,1.52439 2.58162,3.54051 2.58162,6.04838 0,2.55704 -0.86054,4.62234 -2.58162,6.1959 -1.67191,1.52439 -4.25354,2.28658 -7.74488,2.28658 z"
         id="path858"
         inkscape:export-xdpi="72"
         inkscape:export-ydpi="72" />
      <path
         style="color:#000000;font-style:normal;font-variant:normal;font-weight:normal;font-stretch:normal;font-size:151.062px;line-height:1.25;font-family:'Arial Rounded MT Bold';-inkscape-font-specification:'Arial Rounded MT Bold, ';font-variant-ligatures:normal;font-variant-position:normal;font-variant-caps:normal;font-variant-numeric:normal;font-variant-alternates:normal;font-variant-east-asian:normal;font-feature-settings:normal;font-variation-settings:normal;text-indent:0;text-align:start;text-decoration:none;text-decoration-line:none;text-decoration-style:solid;text-decoration-color:#000000;letter-spacing:normal;word-spacing:0px;text-transform:none;writing-mode:lr-tb;direction:ltr;text-orientation:mixed;dominant-baseline:auto;baseline-shift:baseline;text-anchor:start;white-space:normal;shape-padding:0;shape-margin:0;inline-size:0;clip-rule:nonzero;display:inline;overflow:visible;visibility:visible;isolation:auto;mix-blend-mode:normal;color-interpolation:sRGB;color-interpolation-filters:linearRGB;solid-color:#000000;solid-opacity:1;vector-effect:none;fill-opacity:1;fill-rule:nonzero;stroke-width:1.13297;stroke-linecap:butt;stroke-linejoin:miter;stroke-miterlimit:4;stroke-dasharray:none;stroke-dashoffset:0;stroke-opacity:1;color-rendering:auto;image-rendering:auto;shape-rendering:auto;text-rendering:auto;enable-background:accumulate;stop-color:#000000;stop-opacity:1;stroke:none;fill:#e4739e"
         d="M 109.97852 246.34375 C 106.82623 246.34375 104.18989 246.81573 102.07422 247.79492 C 99.991097 248.73233 98.426176 250.30075 97.441406 252.42578 C 96.458542 254.49771 95.986328 257.13347 95.986328 260.33398 L 95.986328 341.61914 C 95.986328 346.42245 97.03355 350.00236 99.246094 352.26758 L 99.248047 352.26953 L 99.25 352.27148 C 101.51508 354.53656 105.12495 355.60937 109.97852 355.60938 L 169.50195 355.60938 C 173.03044 355.60938 175.76902 354.80203 177.62891 353.10156 L 177.63086 353.10156 C 179.51037 351.37867 180.46875 349.10183 180.46875 346.41406 C 180.46875 343.63547 179.51186 341.33061 177.62695 339.65234 C 175.76885 337.90544 173.02806 337.07031 169.50195 337.07031 L 119.02734 337.07031 L 119.02734 307.44336 L 163.89648 307.44336 C 167.37431 307.44336 170.04225 306.6632 171.80859 305.00391 L 171.81055 305.00195 L 171.81445 304.99805 C 173.54304 303.32184 174.41992 301.12629 174.41992 298.54297 C 174.41992 295.95954 173.51052 293.80253 171.72656 292.22461 C 169.96231 290.57121 167.32242 289.78906 163.89648 289.78906 L 119.02734 289.78906 L 119.02734 264.36719 L 167.80664 264.36719 C 171.38043 264.36719 174.11466 263.59025 175.93164 261.93359 L 175.93359 261.93359 C 177.76745 260.25692 178.69922 258.0025 178.69922 255.31836 C 178.69922 252.68455 177.76312 250.47949 175.93164 248.85352 C 174.11638 247.149 171.37908 246.34375 167.80664 246.34375 L 109.97852 246.34375 z M 109.97852 247.47656 L 167.80664 247.47656 C 171.21287 247.47656 173.6335 248.2449 175.16211 249.68359 L 175.16797 249.68945 L 175.17578 249.69531 C 176.78144 251.11747 177.56641 252.94008 177.56641 255.31836 C 177.56641 257.7483 176.77627 259.62721 175.16797 261.09766 C 173.64102 262.48872 171.2142 263.23438 167.80664 263.23438 L 117.89453 263.23438 L 117.89453 290.92188 L 163.89648 290.92188 C 167.15422 290.92188 169.47777 291.66324 170.95898 293.05469 L 170.96484 293.06055 L 170.97266 293.06641 C 172.52749 294.43832 173.28711 296.21268 173.28711 298.54297 C 173.28711 300.87599 172.54285 302.71106 171.02734 304.18164 C 169.54793 305.56828 167.20111 306.31055 163.89648 306.31055 L 117.89453 306.31055 L 117.89453 338.20312 L 169.50195 338.20312 C 172.8551 338.20312 175.27545 338.989 176.85938 340.48242 L 176.86523 340.48828 L 176.87109 340.49414 C 178.52309 341.96258 179.33594 343.88456 179.33594 346.41406 C 179.33594 348.84038 178.52624 350.74304 176.86523 352.26562 C 175.28296 353.71228 172.8578 354.47656 169.50195 354.47656 L 109.97852 354.47656 C 105.29682 354.47656 102.02114 353.43681 100.05664 351.47656 L 100.05469 351.47266 C 100.05371 351.47168 100.05176 351.47168 100.05078 351.4707 C 98.13629 349.50639 97.119141 346.25277 97.119141 341.61914 L 97.119141 260.33398 C 97.119141 257.24292 97.582733 254.76744 98.466797 252.90625 L 98.466797 252.9043 L 98.46875 252.90234 C 99.352585 250.99512 100.68828 249.66098 102.53906 248.82812 L 102.54102 248.82617 L 102.54492 248.82617 C 104.46062 247.93841 106.93751 247.47656 109.97852 247.47656 z "
         id="path860"
         inkscape:export-xdpi="72"
         inkscape:export-ydpi="72" />
    </g>
    <g
       id="g862"
       style="opacity:1;fill:#e4739e;fill-opacity:1"
       inkscape:export-xdpi="72"
       inkscape:export-ydpi="72">
      <path
         style="color:#000000;font-style:normal;font-variant:normal;font-weight:normal;font-stretch:normal;font-size:151.062px;line-height:1.25;font-family:'Arial Rounded MT Bold';-inkscape-font-specification:'Arial Rounded MT Bold, ';font-variant-ligatures:normal;font-variant-position:normal;font-variant-caps:normal;font-variant-numeric:normal;font-variant-alternates:normal;font-variant-east-asian:normal;font-feature-settings:normal;font-variation-settings:normal;text-indent:0;text-align:start;text-decoration:none;text-decoration-line:none;text-decoration-style:solid;text-decoration-color:#000000;letter-spacing:normal;word-spacing:0px;text-transform:none;writing-mode:lr-tb;direction:ltr;text-orientation:mixed;dominant-baseline:auto;baseline-shift:baseline;text-anchor:start;white-space:normal;shape-padding:0;shape-margin:0;inline-size:0;clip-rule:nonzero;display:inline;overflow:visible;visibility:visible;isolation:auto;mix-blend-mode:normal;color-interpolation:sRGB;color-interpolation-filters:linearRGB;solid-color:#000000;solid-opacity:1;vector-effect:none;fill:#e4739e;fill-opacity:1;fill-rule:nonzero;stroke-width:1.13297;stroke-linecap:butt;stroke-linejoin:miter;stroke-miterlimit:4;stroke-dasharray:none;stroke-dashoffset:0;stroke-opacity:1;color-rendering:auto;image-rendering:auto;shape-rendering:auto;text-rendering:auto;enable-background:accumulate;stop-color:#000000;stop-opacity:1;stroke:none"
         d="m 225.85569,258.19573 42.11739,63.72928 v -64.31937 c 0,-4.17977 0.88513,-7.30231 2.65538,-9.36761 1.81943,-2.11447 4.25354,-3.17171 7.30232,-3.17171 3.14712,0 5.6304,1.05724 7.44983,3.17171 1.81943,2.0653 2.72915,5.18784 2.72915,9.36761 v 85.04613 c 0,9.49055 -3.93391,14.23583 -11.80172,14.23583 -1.96695,0 -3.73721,-0.29504 -5.31077,-0.88513 -1.57357,-0.54091 -3.04878,-1.42604 -4.42565,-2.65539 -1.37687,-1.22935 -2.65539,-2.65539 -3.83556,-4.27812 -1.18017,-1.67191 -2.36034,-3.36841 -3.54051,-5.08949 L 218.11082,280.9878 v 63.36047 c 0,4.1306 -0.95889,7.25314 -2.87667,9.36762 -1.91778,2.11447 -4.37647,3.17171 -7.37608,3.17171 -3.09795,0 -5.58122,-1.05724 -7.44983,-3.17171 -1.86861,-2.16365 -2.80291,-5.28619 -2.80291,-9.36762 v -83.4234 c 0,-3.54051 0.39339,-6.31883 1.18017,-8.33496 0.93431,-2.21282 2.48328,-4.00766 4.64693,-5.38453 2.16365,-1.42604 4.4994,-2.13906 7.00727,-2.13906 1.96695,0 3.63886,0.31963 5.01573,0.95888 1.42604,0.63926 2.65539,1.4998 3.68804,2.58163 1.08182,1.08183 2.16364,2.48328 3.24547,4.20436 1.131,1.72109 2.28658,3.51593 3.46675,5.38454 z"
         id="path864" />
      <path
         style="color:#000000;font-style:normal;font-variant:normal;font-weight:normal;font-stretch:normal;font-size:151.062px;line-height:1.25;font-family:'Arial Rounded MT Bold';-inkscape-font-specification:'Arial Rounded MT Bold, ';font-variant-ligatures:normal;font-variant-position:normal;font-variant-caps:normal;font-variant-numeric:normal;font-variant-alternates:normal;font-variant-east-asian:normal;font-feature-settings:normal;font-variation-settings:normal;text-indent:0;text-align:start;text-decoration:none;text-decoration-line:none;text-decoration-style:solid;text-decoration-color:#000000;letter-spacing:normal;word-spacing:0px;text-transform:none;writing-mode:lr-tb;direction:ltr;text-orientation:mixed;dominant-baseline:auto;baseline-shift:baseline;text-anchor:start;white-space:normal;shape-padding:0;shape-margin:0;inline-size:0;clip-rule:nonzero;display:inline;overflow:visible;visibility:visible;isolation:auto;mix-blend-mode:normal;color-interpolation:sRGB;color-interpolation-filters:linearRGB;solid-color:#000000;solid-opacity:1;vector-effect:none;fill-opacity:1;fill-rule:nonzero;stroke-width:1.13297;stroke-linecap:butt;stroke-linejoin:miter;stroke-miterlimit:4;stroke-dasharray:none;stroke-dashoffset:0;stroke-opacity:1;color-rendering:auto;image-rendering:auto;shape-rendering:auto;text-rendering:auto;enable-background:accumulate;stop-color:#000000;stop-opacity:1;stroke:none;fill:#e4739e"
         d="M 210.43945 244.5 C 207.82509 244.5 205.37005 245.25007 203.12305 246.73047 C 203.1223 246.73096 203.12184 246.73193 203.12109 246.73242 C 200.87706 248.16261 199.24131 250.0537 198.26367 252.36914 L 198.25977 252.37695 L 198.25781 252.38477 C 197.43021 254.50551 197.03906 257.34331 197.03906 260.92578 L 197.03906 344.34766 C 197.03906 348.51553 197.99669 351.78893 199.98047 354.08594 L 199.98242 354.08789 L 199.98438 354.0918 C 201.95585 356.32267 204.63059 357.45312 207.85742 357.45312 C 210.99014 357.45312 213.63778 356.31904 215.6543 354.0957 C 217.6954 351.84526 218.67773 348.56593 218.67773 344.34766 L 218.67773 282.89258 L 258.72461 344.29492 L 258.72852 344.30078 C 259.91011 346.02394 261.09176 347.72243 262.27344 349.39648 L 262.27539 349.39844 L 262.27734 349.40234 C 263.47913 351.05479 264.7841 352.51127 266.19336 353.76953 C 267.6154 355.03921 269.15378 355.96549 270.79883 356.5332 C 270.7994 356.53342 270.80021 356.53299 270.80078 356.5332 C 272.44656 357.1501 274.2857 357.45312 276.30859 357.45312 C 280.35639 357.45312 283.51032 356.20494 285.5957 353.68945 C 287.68108 351.17396 288.67578 347.47589 288.67578 342.65234 L 288.67578 257.60547 C 288.67578 253.34684 287.75216 250.07661 285.81055 247.86914 C 283.88579 245.63226 281.20563 244.5 277.93164 244.5 C 274.7519 244.5 272.12069 245.63609 270.19922 247.86914 C 268.30608 250.07781 267.40625 253.34572 267.40625 257.60547 L 267.40625 320.04102 L 226.33398 257.89258 C 225.15422 256.02461 224.00023 254.23111 222.86914 252.50977 L 222.86328 252.5 C 221.76832 250.75936 220.66627 249.33119 219.54883 248.21289 C 218.46695 247.08032 217.17751 246.17799 215.69336 245.51172 C 214.22304 244.82908 212.46778 244.5 210.43945 244.5 z M 210.43945 245.63281 C 212.34504 245.63281 213.93338 245.9432 215.2168 246.53906 L 215.2207 246.54102 L 215.22461 246.54297 C 216.58838 247.15431 217.75317 247.97012 218.73438 248.99805 L 218.73828 249.00195 L 218.74219 249.00781 C 219.78456 250.05019 220.84515 251.41895 221.91016 253.11328 L 221.91211 253.11719 L 221.91602 253.12305 C 223.04501 254.84107 224.19848 256.63213 225.37695 258.49805 L 225.37891 258.50391 L 225.38281 258.50781 L 268.53906 323.81055 L 268.53906 257.60547 C 268.53906 253.50567 269.41123 250.52935 271.05859 248.60742 C 272.77599 246.61153 275.01382 245.63281 277.93164 245.63281 C 280.95189 245.63281 283.23707 246.61535 284.95117 248.60742 L 284.95312 248.60938 L 284.95508 248.61328 C 286.64921 250.53635 287.54297 253.50789 287.54297 257.60547 L 287.54297 342.65234 C 287.54297 347.31935 286.57118 350.73701 284.72266 352.9668 C 282.87413 355.19658 280.12861 356.32031 276.30859 356.32031 C 274.39829 356.32031 272.69621 356.0355 271.19531 355.47266 L 271.18945 355.46875 L 271.18164 355.4668 C 269.68481 354.95226 268.2769 354.10926 266.94922 352.92383 C 265.60672 351.72517 264.35635 350.33228 263.19922 348.74219 C 262.02324 347.07621 260.84599 345.38491 259.66992 343.66992 L 259.66406 343.66211 C 259.66324 343.66091 259.66293 343.6594 259.66211 343.6582 L 217.54492 279.08203 L 217.54492 344.34766 C 217.54492 348.39059 216.60891 351.35742 214.81445 353.33594 C 212.99541 355.34155 210.72392 356.32031 207.85742 356.32031 C 204.89156 356.32031 202.60286 355.33943 200.83789 353.3457 L 200.83594 353.34375 C 199.08357 351.3135 198.17187 348.34139 198.17188 344.34766 L 198.17188 260.92578 C 198.17188 257.4321 198.56661 254.71578 199.31055 252.80469 C 200.20054 250.7005 201.65967 249.00511 203.73633 247.68359 L 203.74023 247.68164 L 203.74414 247.67773 C 205.82382 246.30704 208.03896 245.63281 210.43945 245.63281 z "
         id="path866" />
    </g>
  </g>
</svg>
